<mxfile host="app.diagrams.net" agent="Mozilla/5.0 (Windows NT 10.0; Win64; x64) AppleWebKit/537.36 (KHTML, like Gecko) Chrome/129.0.0.0 Safari/537.36 Edg/129.0.0.0" version="24.7.17">
  <diagram name="Page-1" id="h81bWybR0aanZXNQEndI">
    <mxGraphModel grid="1" page="1" gridSize="10" guides="1" tooltips="1" connect="1" arrows="1" fold="1" pageScale="1" pageWidth="827" pageHeight="1169" math="0" shadow="0">
      <root>
        <mxCell id="0" />
        <mxCell id="1" parent="0" />
        <mxCell id="xowhlyWuLnHGyFHZpXoj-5" value="" style="edgeStyle=orthogonalEdgeStyle;rounded=0;orthogonalLoop=1;jettySize=auto;html=1;" edge="1" parent="1" source="xowhlyWuLnHGyFHZpXoj-1" target="xowhlyWuLnHGyFHZpXoj-4">
          <mxGeometry relative="1" as="geometry" />
        </mxCell>
        <mxCell id="xowhlyWuLnHGyFHZpXoj-1" value="Start" style="strokeWidth=2;html=1;shape=mxgraph.flowchart.terminator;whiteSpace=wrap;" vertex="1" parent="1">
          <mxGeometry x="350" y="-1150" width="100" height="60" as="geometry" />
        </mxCell>
        <mxCell id="xowhlyWuLnHGyFHZpXoj-10" value="" style="edgeStyle=orthogonalEdgeStyle;rounded=0;orthogonalLoop=1;jettySize=auto;html=1;" edge="1" parent="1" source="xowhlyWuLnHGyFHZpXoj-4">
          <mxGeometry relative="1" as="geometry">
            <mxPoint x="280" y="-1000" as="targetPoint" />
          </mxGeometry>
        </mxCell>
        <mxCell id="xowhlyWuLnHGyFHZpXoj-12" value="" style="edgeStyle=orthogonalEdgeStyle;rounded=0;orthogonalLoop=1;jettySize=auto;html=1;" edge="1" parent="1" source="xowhlyWuLnHGyFHZpXoj-4" target="xowhlyWuLnHGyFHZpXoj-11">
          <mxGeometry relative="1" as="geometry" />
        </mxCell>
        <mxCell id="xowhlyWuLnHGyFHZpXoj-4" value="Play game?" style="strokeWidth=2;html=1;shape=mxgraph.flowchart.decision;whiteSpace=wrap;" vertex="1" parent="1">
          <mxGeometry x="350" y="-1050" width="100" height="100" as="geometry" />
        </mxCell>
        <mxCell id="xowhlyWuLnHGyFHZpXoj-16" value="" style="edgeStyle=orthogonalEdgeStyle;rounded=0;orthogonalLoop=1;jettySize=auto;html=1;" edge="1" parent="1" source="xowhlyWuLnHGyFHZpXoj-6" target="xowhlyWuLnHGyFHZpXoj-15">
          <mxGeometry relative="1" as="geometry" />
        </mxCell>
        <mxCell id="xowhlyWuLnHGyFHZpXoj-6" value="Draw cards" style="rounded=1;whiteSpace=wrap;html=1;absoluteArcSize=1;arcSize=14;strokeWidth=2;" vertex="1" parent="1">
          <mxGeometry x="190" y="-890" width="100" height="100" as="geometry" />
        </mxCell>
        <mxCell id="xowhlyWuLnHGyFHZpXoj-8" value="" style="edgeStyle=orthogonalEdgeStyle;rounded=0;orthogonalLoop=1;jettySize=auto;html=1;" edge="1" parent="1" source="xowhlyWuLnHGyFHZpXoj-7" target="xowhlyWuLnHGyFHZpXoj-6">
          <mxGeometry relative="1" as="geometry" />
        </mxCell>
        <mxCell id="xowhlyWuLnHGyFHZpXoj-7" value="OUTPUT&lt;div&gt;Welcome to the game&lt;/div&gt;" style="shape=parallelogram;html=1;strokeWidth=2;perimeter=parallelogramPerimeter;whiteSpace=wrap;rounded=1;arcSize=12;size=0.23;" vertex="1" parent="1">
          <mxGeometry x="190" y="-1030" width="100" height="60" as="geometry" />
        </mxCell>
        <mxCell id="xowhlyWuLnHGyFHZpXoj-21" value="" style="edgeStyle=orthogonalEdgeStyle;rounded=0;orthogonalLoop=1;jettySize=auto;html=1;" edge="1" parent="1" source="xowhlyWuLnHGyFHZpXoj-11" target="xowhlyWuLnHGyFHZpXoj-20">
          <mxGeometry relative="1" as="geometry" />
        </mxCell>
        <mxCell id="xowhlyWuLnHGyFHZpXoj-11" value="OUTPUT&lt;div&gt;BYE BYE&lt;/div&gt;" style="shape=parallelogram;html=1;strokeWidth=2;perimeter=parallelogramPerimeter;whiteSpace=wrap;rounded=1;arcSize=12;size=0.23;" vertex="1" parent="1">
          <mxGeometry x="530" y="-1090" width="100" height="60" as="geometry" />
        </mxCell>
        <mxCell id="xowhlyWuLnHGyFHZpXoj-19" value="" style="edgeStyle=orthogonalEdgeStyle;rounded=0;orthogonalLoop=1;jettySize=auto;html=1;" edge="1" parent="1" source="xowhlyWuLnHGyFHZpXoj-13" target="xowhlyWuLnHGyFHZpXoj-18">
          <mxGeometry relative="1" as="geometry" />
        </mxCell>
        <mxCell id="xowhlyWuLnHGyFHZpXoj-30" value="" style="edgeStyle=orthogonalEdgeStyle;rounded=0;orthogonalLoop=1;jettySize=auto;html=1;" edge="1" parent="1" source="xowhlyWuLnHGyFHZpXoj-13" target="xowhlyWuLnHGyFHZpXoj-29">
          <mxGeometry relative="1" as="geometry" />
        </mxCell>
        <mxCell id="xowhlyWuLnHGyFHZpXoj-13" value="Higher or Lower" style="strokeWidth=2;html=1;shape=mxgraph.flowchart.decision;whiteSpace=wrap;" vertex="1" parent="1">
          <mxGeometry x="600" y="-670" width="100" height="100" as="geometry" />
        </mxCell>
        <mxCell id="xowhlyWuLnHGyFHZpXoj-17" value="" style="edgeStyle=orthogonalEdgeStyle;rounded=0;orthogonalLoop=1;jettySize=auto;html=1;" edge="1" parent="1" source="xowhlyWuLnHGyFHZpXoj-15" target="xowhlyWuLnHGyFHZpXoj-13">
          <mxGeometry relative="1" as="geometry" />
        </mxCell>
        <mxCell id="xowhlyWuLnHGyFHZpXoj-15" value="OUTPUT&lt;div&gt;Higher or Lower&lt;/div&gt;" style="shape=parallelogram;html=1;strokeWidth=2;perimeter=parallelogramPerimeter;whiteSpace=wrap;rounded=1;arcSize=12;size=0.23;" vertex="1" parent="1">
          <mxGeometry x="364" y="-710" width="100" height="60" as="geometry" />
        </mxCell>
        <mxCell id="xowhlyWuLnHGyFHZpXoj-24" value="" style="edgeStyle=orthogonalEdgeStyle;rounded=0;orthogonalLoop=1;jettySize=auto;html=1;" edge="1" parent="1" source="xowhlyWuLnHGyFHZpXoj-18" target="xowhlyWuLnHGyFHZpXoj-22">
          <mxGeometry relative="1" as="geometry" />
        </mxCell>
        <mxCell id="xowhlyWuLnHGyFHZpXoj-18" value="OUTPUT&lt;div&gt;Well Done&lt;/div&gt;" style="shape=parallelogram;html=1;strokeWidth=2;perimeter=parallelogramPerimeter;whiteSpace=wrap;rounded=1;arcSize=12;size=0.23;" vertex="1" parent="1">
          <mxGeometry x="600" y="-760" width="100" height="60" as="geometry" />
        </mxCell>
        <mxCell id="xowhlyWuLnHGyFHZpXoj-20" value="End" style="strokeWidth=2;html=1;shape=mxgraph.flowchart.terminator;whiteSpace=wrap;" vertex="1" parent="1">
          <mxGeometry x="660" y="-1150" width="100" height="60" as="geometry" />
        </mxCell>
        <mxCell id="xowhlyWuLnHGyFHZpXoj-26" value="" style="edgeStyle=orthogonalEdgeStyle;rounded=0;orthogonalLoop=1;jettySize=auto;html=1;" edge="1" parent="1" source="xowhlyWuLnHGyFHZpXoj-22" target="xowhlyWuLnHGyFHZpXoj-25">
          <mxGeometry relative="1" as="geometry" />
        </mxCell>
        <mxCell id="xowhlyWuLnHGyFHZpXoj-22" value="+1 point" style="rounded=1;whiteSpace=wrap;html=1;absoluteArcSize=1;arcSize=14;strokeWidth=2;" vertex="1" parent="1">
          <mxGeometry x="630" y="-830" width="40" height="40" as="geometry" />
        </mxCell>
        <mxCell id="xowhlyWuLnHGyFHZpXoj-27" style="edgeStyle=orthogonalEdgeStyle;rounded=0;orthogonalLoop=1;jettySize=auto;html=1;exitX=0;exitY=0.5;exitDx=0;exitDy=0;exitPerimeter=0;entryX=1;entryY=0.25;entryDx=0;entryDy=0;" edge="1" parent="1" source="xowhlyWuLnHGyFHZpXoj-25" target="xowhlyWuLnHGyFHZpXoj-6">
          <mxGeometry relative="1" as="geometry" />
        </mxCell>
        <mxCell id="xowhlyWuLnHGyFHZpXoj-35" value="" style="edgeStyle=orthogonalEdgeStyle;rounded=0;orthogonalLoop=1;jettySize=auto;html=1;" edge="1" parent="1" source="xowhlyWuLnHGyFHZpXoj-25" target="xowhlyWuLnHGyFHZpXoj-34">
          <mxGeometry relative="1" as="geometry" />
        </mxCell>
        <mxCell id="xowhlyWuLnHGyFHZpXoj-25" value="Play again?" style="strokeWidth=2;html=1;shape=mxgraph.flowchart.decision;whiteSpace=wrap;" vertex="1" parent="1">
          <mxGeometry x="680" y="-950" width="100" height="100" as="geometry" />
        </mxCell>
        <mxCell id="xowhlyWuLnHGyFHZpXoj-32" value="" style="edgeStyle=orthogonalEdgeStyle;rounded=0;orthogonalLoop=1;jettySize=auto;html=1;" edge="1" parent="1" source="xowhlyWuLnHGyFHZpXoj-29" target="xowhlyWuLnHGyFHZpXoj-31">
          <mxGeometry relative="1" as="geometry" />
        </mxCell>
        <mxCell id="xowhlyWuLnHGyFHZpXoj-29" value="OUTPUT&lt;div&gt;Wrong&lt;/div&gt;" style="shape=parallelogram;html=1;strokeWidth=2;perimeter=parallelogramPerimeter;whiteSpace=wrap;rounded=1;arcSize=12;size=0.23;" vertex="1" parent="1">
          <mxGeometry x="600" y="-530" width="100" height="60" as="geometry" />
        </mxCell>
        <mxCell id="xowhlyWuLnHGyFHZpXoj-31" value="revert score to 0" style="rounded=1;whiteSpace=wrap;html=1;absoluteArcSize=1;arcSize=14;strokeWidth=2;" vertex="1" parent="1">
          <mxGeometry x="740" y="-535" width="70" height="70" as="geometry" />
        </mxCell>
        <mxCell id="xowhlyWuLnHGyFHZpXoj-33" style="edgeStyle=orthogonalEdgeStyle;rounded=0;orthogonalLoop=1;jettySize=auto;html=1;exitX=0.5;exitY=0;exitDx=0;exitDy=0;entryX=0.8;entryY=0.73;entryDx=0;entryDy=0;entryPerimeter=0;" edge="1" parent="1" source="xowhlyWuLnHGyFHZpXoj-31" target="xowhlyWuLnHGyFHZpXoj-25">
          <mxGeometry relative="1" as="geometry" />
        </mxCell>
        <mxCell id="xowhlyWuLnHGyFHZpXoj-34" value="OUTPUT&lt;div&gt;Thanks for playin, your score was:&lt;/div&gt;" style="shape=parallelogram;html=1;strokeWidth=2;perimeter=parallelogramPerimeter;whiteSpace=wrap;rounded=1;arcSize=12;size=0.23;" vertex="1" parent="1">
          <mxGeometry x="680" y="-1050" width="100" height="60" as="geometry" />
        </mxCell>
        <mxCell id="xowhlyWuLnHGyFHZpXoj-36" style="edgeStyle=orthogonalEdgeStyle;rounded=0;orthogonalLoop=1;jettySize=auto;html=1;exitX=0.75;exitY=0;exitDx=0;exitDy=0;entryX=0.89;entryY=0.89;entryDx=0;entryDy=0;entryPerimeter=0;" edge="1" parent="1" source="xowhlyWuLnHGyFHZpXoj-34" target="xowhlyWuLnHGyFHZpXoj-20">
          <mxGeometry relative="1" as="geometry" />
        </mxCell>
        <mxCell id="xowhlyWuLnHGyFHZpXoj-37" value="yes" style="text;html=1;align=center;verticalAlign=middle;whiteSpace=wrap;rounded=0;" vertex="1" parent="1">
          <mxGeometry x="290" y="-1030" width="60" height="30" as="geometry" />
        </mxCell>
        <mxCell id="xowhlyWuLnHGyFHZpXoj-38" value="yes" style="text;html=1;align=center;verticalAlign=middle;whiteSpace=wrap;rounded=0;" vertex="1" parent="1">
          <mxGeometry x="540" y="-930" width="60" height="30" as="geometry" />
        </mxCell>
        <mxCell id="xowhlyWuLnHGyFHZpXoj-39" value="higher" style="text;html=1;align=center;verticalAlign=middle;whiteSpace=wrap;rounded=0;" vertex="1" parent="1">
          <mxGeometry x="650" y="-700" width="60" height="30" as="geometry" />
        </mxCell>
        <mxCell id="xowhlyWuLnHGyFHZpXoj-40" value="no" style="text;html=1;align=center;verticalAlign=middle;whiteSpace=wrap;rounded=0;" vertex="1" parent="1">
          <mxGeometry x="480" y="-1090" width="60" height="30" as="geometry" />
        </mxCell>
        <mxCell id="xowhlyWuLnHGyFHZpXoj-42" value="no" style="text;html=1;align=center;verticalAlign=middle;whiteSpace=wrap;rounded=0;" vertex="1" parent="1">
          <mxGeometry x="720" y="-980" width="60" height="30" as="geometry" />
        </mxCell>
        <mxCell id="xowhlyWuLnHGyFHZpXoj-43" value="lower" style="text;html=1;align=center;verticalAlign=middle;whiteSpace=wrap;rounded=0;" vertex="1" parent="1">
          <mxGeometry x="640" y="-570" width="60" height="30" as="geometry" />
        </mxCell>
      </root>
    </mxGraphModel>
  </diagram>
</mxfile>
